<svg xmlns="http://www.w3.org/2000/svg" viewBox="0 0 12 12" shape-rendering="crispEdges"><rect x="2" y="1" width="1.02" height="1.02" fill="#E8A02C"></rect><rect x="9" y="1" width="1.02" height="1.02" fill="#E8A02C"></rect><rect x="3" y="2" width="1.02" height="1.02" fill="#E8A02C"></rect><rect x="5" y="2" width="1.02" height="1.02" fill="#E8A02C"></rect><rect x="7" y="2" width="1.02" height="1.02" fill="#E8A02C"></rect><rect x="9" y="2" width="1.02" height="1.02" fill="#E8A02C"></rect><rect x="4" y="3" width="1.02" height="1.02" fill="#E8A02C"></rect><rect x="5" y="3" width="1.02" height="1.02" fill="#E8A02C"></rect><rect x="6" y="3" width="1.02" height="1.02" fill="#E8A02C"></rect><rect x="5" y="4" width="1.02" height="1.02" fill="#E8A02C"></rect><rect x="2" y="5" width="1.02" height="1.02" fill="#3B82F6"></rect><rect x="3" y="5" width="1.02" height="1.02" fill="#3B82F6"></rect><rect x="4" y="5" width="1.02" height="1.02" fill="#3B82F6"></rect><rect x="5" y="5" width="1.02" height="1.02" fill="#3B82F6"></rect><rect x="6" y="5" width="1.02" height="1.02" fill="#3B82F6"></rect><rect x="7" y="5" width="1.02" height="1.02" fill="#3B82F6"></rect><rect x="8" y="5" width="1.02" height="1.02" fill="#3B82F6"></rect><rect x="9" y="5" width="1.02" height="1.02" fill="#3B82F6"></rect><rect x="10" y="5" width="1.02" height="1.02" fill="#3B82F6"></rect><rect x="2" y="6" width="1.02" height="1.02" fill="#3B82F6"></rect><rect x="10" y="6" width="1.02" height="1.02" fill="#3B82F6"></rect><rect x="2" y="7" width="1.02" height="1.02" fill="#3B82F6"></rect><rect x="4" y="7" width="1.02" height="1.02" fill="#3B82F6"></rect><rect x="5" y="7" width="1.02" height="1.02" fill="#3B82F6"></rect><rect x="6" y="7" width="1.02" height="1.02" fill="#3B82F6"></rect><rect x="7" y="7" width="1.02" height="1.02" fill="#3B82F6"></rect><rect x="8" y="7" width="1.02" height="1.02" fill="#3B82F6"></rect><rect x="10" y="7" width="1.02" height="1.02" fill="#3B82F6"></rect><rect x="2" y="8" width="1.02" height="1.02" fill="#3B82F6"></rect><rect x="4" y="8" width="1.02" height="1.02" fill="#3B82F6"></rect><rect x="8" y="8" width="1.02" height="1.02" fill="#3B82F6"></rect><rect x="10" y="8" width="1.02" height="1.02" fill="#3B82F6"></rect><rect x="2" y="9" width="1.02" height="1.02" fill="#3B82F6"></rect><rect x="4" y="9" width="1.02" height="1.02" fill="#3B82F6"></rect><rect x="5" y="9" width="1.02" height="1.02" fill="#3B82F6"></rect><rect x="6" y="9" width="1.02" height="1.02" fill="#3B82F6"></rect><rect x="7" y="9" width="1.02" height="1.02" fill="#3B82F6"></rect><rect x="8" y="9" width="1.02" height="1.02" fill="#3B82F6"></rect><rect x="10" y="9" width="1.02" height="1.02" fill="#3B82F6"></rect><rect x="2" y="10" width="1.02" height="1.02" fill="#3B82F6"></rect><rect x="10" y="10" width="1.02" height="1.02" fill="#3B82F6"></rect><rect x="2" y="11" width="1.02" height="1.02" fill="#3B82F6"></rect><rect x="3" y="11" width="1.02" height="1.02" fill="#3B82F6"></rect><rect x="4" y="11" width="1.02" height="1.02" fill="#3B82F6"></rect><rect x="5" y="11" width="1.02" height="1.02" fill="#3B82F6"></rect><rect x="6" y="11" width="1.02" height="1.02" fill="#3B82F6"></rect><rect x="7" y="11" width="1.02" height="1.02" fill="#3B82F6"></rect><rect x="8" y="11" width="1.02" height="1.02" fill="#3B82F6"></rect><rect x="9" y="11" width="1.02" height="1.02" fill="#3B82F6"></rect><rect x="10" y="11" width="1.02" height="1.02" fill="#3B82F6"></rect></svg>