<svg xmlns="http://www.w3.org/2000/svg" viewBox="0 0 10 10" shape-rendering="crispEdges"><rect x="1" y="1" width="1.02" height="1.02" fill="#EF4444"></rect><rect x="8" y="1" width="1.02" height="1.02" fill="#EF4444"></rect><rect x="1" y="2" width="1.02" height="1.02" fill="#EF4444"></rect><rect x="2" y="2" width="1.02" height="1.02" fill="#991B1B"></rect><rect x="7" y="2" width="1.02" height="1.02" fill="#991B1B"></rect><rect x="8" y="2" width="1.02" height="1.02" fill="#EF4444"></rect><rect x="2" y="3" width="1.02" height="1.02" fill="#EF4444"></rect><rect x="3" y="3" width="1.02" height="1.02" fill="#991B1B"></rect><rect x="6" y="3" width="1.02" height="1.02" fill="#991B1B"></rect><rect x="7" y="3" width="1.02" height="1.02" fill="#EF4444"></rect><rect x="3" y="4" width="1.02" height="1.02" fill="#EF4444"></rect><rect x="4" y="4" width="1.02" height="1.02" fill="#991B1B"></rect><rect x="5" y="4" width="1.02" height="1.02" fill="#991B1B"></rect><rect x="6" y="4" width="1.02" height="1.02" fill="#EF4444"></rect><rect x="3" y="5" width="1.02" height="1.02" fill="#991B1B"></rect><rect x="4" y="5" width="1.02" height="1.02" fill="#EF4444"></rect><rect x="5" y="5" width="1.02" height="1.02" fill="#EF4444"></rect><rect x="6" y="5" width="1.02" height="1.02" fill="#991B1B"></rect><rect x="2" y="6" width="1.02" height="1.02" fill="#991B1B"></rect><rect x="3" y="6" width="1.02" height="1.02" fill="#EF4444"></rect><rect x="6" y="6" width="1.02" height="1.02" fill="#EF4444"></rect><rect x="7" y="6" width="1.02" height="1.02" fill="#991B1B"></rect><rect x="1" y="7" width="1.02" height="1.02" fill="#991B1B"></rect><rect x="2" y="7" width="1.02" height="1.02" fill="#EF4444"></rect><rect x="7" y="7" width="1.02" height="1.02" fill="#EF4444"></rect><rect x="8" y="7" width="1.02" height="1.02" fill="#991B1B"></rect><rect x="1" y="8" width="1.02" height="1.02" fill="#EF4444"></rect><rect x="8" y="8" width="1.02" height="1.02" fill="#EF4444"></rect></svg>