<svg xmlns="http://www.w3.org/2000/svg" viewBox="0 0 10 8" shape-rendering="crispEdges"><rect x="1" y="1" width="1.02" height="1.02" fill="#FFFFFF"></rect><rect x="2" y="1" width="1.02" height="1.02" fill="#FFFFFF"></rect><rect x="3" y="1" width="1.02" height="1.02" fill="#FFFFFF"></rect><rect x="4" y="1" width="1.02" height="1.02" fill="#FFFFFF"></rect><rect x="5" y="1" width="1.02" height="1.02" fill="#FFFFFF"></rect><rect x="6" y="1" width="1.02" height="1.02" fill="#FFFFFF"></rect><rect x="7" y="1" width="1.02" height="1.02" fill="#FFFFFF"></rect><rect x="8" y="1" width="1.02" height="1.02" fill="#FFFFFF"></rect><rect x="0" y="2" width="1.02" height="1.02" fill="#FFFFFF"></rect><rect x="1" y="2" width="1.02" height="1.02" fill="#FFFFFF"></rect><rect x="2" y="2" width="1.02" height="1.02" fill="#0F0E0B"></rect><rect x="3" y="2" width="1.02" height="1.02" fill="#0F0E0B"></rect><rect x="4" y="2" width="1.02" height="1.02" fill="#FFFFFF"></rect><rect x="5" y="2" width="1.02" height="1.02" fill="#FFFFFF"></rect><rect x="6" y="2" width="1.02" height="1.02" fill="#0F0E0B"></rect><rect x="7" y="2" width="1.02" height="1.02" fill="#0F0E0B"></rect><rect x="8" y="2" width="1.02" height="1.02" fill="#FFFFFF"></rect><rect x="9" y="2" width="1.02" height="1.02" fill="#FFFFFF"></rect><rect x="0" y="3" width="1.02" height="1.02" fill="#FFFFFF"></rect><rect x="1" y="3" width="1.02" height="1.02" fill="#0F0E0B"></rect><rect x="2" y="3" width="1.02" height="1.02" fill="#3B82F6"></rect><rect x="3" y="3" width="1.02" height="1.02" fill="#3B82F6"></rect><rect x="4" y="3" width="1.02" height="1.02" fill="#0F0E0B"></rect><rect x="5" y="3" width="1.02" height="1.02" fill="#0F0E0B"></rect><rect x="6" y="3" width="1.02" height="1.02" fill="#3B82F6"></rect><rect x="7" y="3" width="1.02" height="1.02" fill="#3B82F6"></rect><rect x="8" y="3" width="1.02" height="1.02" fill="#0F0E0B"></rect><rect x="9" y="3" width="1.02" height="1.02" fill="#FFFFFF"></rect><rect x="0" y="4" width="1.02" height="1.02" fill="#FFFFFF"></rect><rect x="1" y="4" width="1.02" height="1.02" fill="#0F0E0B"></rect><rect x="2" y="4" width="1.02" height="1.02" fill="#3B82F6"></rect><rect x="3" y="4" width="1.02" height="1.02" fill="#3B82F6"></rect><rect x="4" y="4" width="1.02" height="1.02" fill="#0F0E0B"></rect><rect x="5" y="4" width="1.02" height="1.02" fill="#0F0E0B"></rect><rect x="6" y="4" width="1.02" height="1.02" fill="#3B82F6"></rect><rect x="7" y="4" width="1.02" height="1.02" fill="#3B82F6"></rect><rect x="8" y="4" width="1.02" height="1.02" fill="#0F0E0B"></rect><rect x="9" y="4" width="1.02" height="1.02" fill="#FFFFFF"></rect><rect x="0" y="5" width="1.02" height="1.02" fill="#FFFFFF"></rect><rect x="1" y="5" width="1.02" height="1.02" fill="#FFFFFF"></rect><rect x="2" y="5" width="1.02" height="1.02" fill="#0F0E0B"></rect><rect x="3" y="5" width="1.02" height="1.02" fill="#0F0E0B"></rect><rect x="4" y="5" width="1.02" height="1.02" fill="#FFFFFF"></rect><rect x="5" y="5" width="1.02" height="1.02" fill="#FFFFFF"></rect><rect x="6" y="5" width="1.02" height="1.02" fill="#0F0E0B"></rect><rect x="7" y="5" width="1.02" height="1.02" fill="#0F0E0B"></rect><rect x="8" y="5" width="1.02" height="1.02" fill="#FFFFFF"></rect><rect x="9" y="5" width="1.02" height="1.02" fill="#FFFFFF"></rect><rect x="1" y="6" width="1.02" height="1.02" fill="#FFFFFF"></rect><rect x="2" y="6" width="1.02" height="1.02" fill="#FFFFFF"></rect><rect x="3" y="6" width="1.02" height="1.02" fill="#FFFFFF"></rect><rect x="4" y="6" width="1.02" height="1.02" fill="#FFFFFF"></rect><rect x="5" y="6" width="1.02" height="1.02" fill="#FFFFFF"></rect><rect x="6" y="6" width="1.02" height="1.02" fill="#FFFFFF"></rect><rect x="7" y="6" width="1.02" height="1.02" fill="#FFFFFF"></rect><rect x="8" y="6" width="1.02" height="1.02" fill="#FFFFFF"></rect></svg>