<svg xmlns="http://www.w3.org/2000/svg" viewBox="0 0 16 20" shape-rendering="crispEdges"><rect x="4" y="1" width="1.02" height="1.02" fill="#E8A02C"></rect><rect x="8" y="1" width="1.02" height="1.02" fill="#E8A02C"></rect><rect x="3" y="2" width="1.02" height="1.02" fill="#E8A02C"></rect><rect x="4" y="2" width="1.02" height="1.02" fill="#E8A02C"></rect><rect x="7" y="2" width="1.02" height="1.02" fill="#E8A02C"></rect><rect x="8" y="2" width="1.02" height="1.02" fill="#E8A02C"></rect><rect x="9" y="2" width="1.02" height="1.02" fill="#E8A02C"></rect><rect x="2" y="3" width="1.02" height="1.02" fill="#E8A02C"></rect><rect x="3" y="3" width="1.02" height="1.02" fill="#E8A02C"></rect><rect x="4" y="3" width="1.02" height="1.02" fill="#E8A02C"></rect><rect x="5" y="3" width="1.02" height="1.02" fill="#E8A02C"></rect><rect x="6" y="3" width="1.02" height="1.02" fill="#E8A02C"></rect><rect x="7" y="3" width="1.02" height="1.02" fill="#E8A02C"></rect><rect x="8" y="3" width="1.02" height="1.02" fill="#E8A02C"></rect><rect x="9" y="3" width="1.02" height="1.02" fill="#E8A02C"></rect><rect x="10" y="3" width="1.02" height="1.02" fill="#E8A02C"></rect><rect x="2" y="4" width="1.02" height="1.02" fill="#B26A12"></rect><rect x="3" y="4" width="1.02" height="1.02" fill="#B26A12"></rect><rect x="4" y="4" width="1.02" height="1.02" fill="#B26A12"></rect><rect x="5" y="4" width="1.02" height="1.02" fill="#B26A12"></rect><rect x="6" y="4" width="1.02" height="1.02" fill="#B26A12"></rect><rect x="7" y="4" width="1.02" height="1.02" fill="#B26A12"></rect><rect x="8" y="4" width="1.02" height="1.02" fill="#B26A12"></rect><rect x="9" y="4" width="1.02" height="1.02" fill="#B26A12"></rect><rect x="10" y="4" width="1.02" height="1.02" fill="#B26A12"></rect><rect x="11" y="4" width="1.02" height="1.02" fill="#B26A12"></rect><rect x="3" y="5" width="1.02" height="1.02" fill="#DAB78A"></rect><rect x="4" y="5" width="1.02" height="1.02" fill="#DAB78A"></rect><rect x="5" y="5" width="1.02" height="1.02" fill="#DAB78A"></rect><rect x="6" y="5" width="1.02" height="1.02" fill="#DAB78A"></rect><rect x="7" y="5" width="1.02" height="1.02" fill="#DAB78A"></rect><rect x="8" y="5" width="1.02" height="1.02" fill="#DAB78A"></rect><rect x="9" y="5" width="1.02" height="1.02" fill="#DAB78A"></rect><rect x="10" y="5" width="1.02" height="1.02" fill="#DAB78A"></rect><rect x="2" y="6" width="1.02" height="1.02" fill="#DAB78A"></rect><rect x="3" y="6" width="1.02" height="1.02" fill="#DAB78A"></rect><rect x="4" y="6" width="1.02" height="1.02" fill="#DAB78A"></rect><rect x="5" y="6" width="1.02" height="1.02" fill="#DAB78A"></rect><rect x="6" y="6" width="1.02" height="1.02" fill="#DAB78A"></rect><rect x="7" y="6" width="1.02" height="1.02" fill="#DAB78A"></rect><rect x="8" y="6" width="1.02" height="1.02" fill="#DAB78A"></rect><rect x="9" y="6" width="1.02" height="1.02" fill="#DAB78A"></rect><rect x="10" y="6" width="1.02" height="1.02" fill="#DAB78A"></rect><rect x="11" y="6" width="1.02" height="1.02" fill="#DAB78A"></rect><rect x="1" y="7" width="1.02" height="1.02" fill="#DAB78A"></rect><rect x="2" y="7" width="1.02" height="1.02" fill="#DAB78A"></rect><rect x="3" y="7" width="1.02" height="1.02" fill="#DAB78A"></rect><rect x="4" y="7" width="1.02" height="1.02" fill="#DAB78A"></rect><rect x="5" y="7" width="1.02" height="1.02" fill="#DAB78A"></rect><rect x="6" y="7" width="1.02" height="1.02" fill="#DAB78A"></rect><rect x="7" y="7" width="1.02" height="1.02" fill="#DAB78A"></rect><rect x="8" y="7" width="1.02" height="1.02" fill="#DAB78A"></rect><rect x="9" y="7" width="1.02" height="1.02" fill="#DAB78A"></rect><rect x="10" y="7" width="1.02" height="1.02" fill="#DAB78A"></rect><rect x="11" y="7" width="1.02" height="1.02" fill="#DAB78A"></rect><rect x="12" y="7" width="1.02" height="1.02" fill="#DAB78A"></rect><rect x="1" y="8" width="1.02" height="1.02" fill="#DAB78A"></rect><rect x="2" y="8" width="1.02" height="1.02" fill="#DAB78A"></rect><rect x="3" y="8" width="1.02" height="1.02" fill="#0F0E0B"></rect><rect x="4" y="8" width="1.02" height="1.02" fill="#B0916A"></rect><rect x="5" y="8" width="1.02" height="1.02" fill="#DAB78A"></rect><rect x="6" y="8" width="1.02" height="1.02" fill="#DAB78A"></rect><rect x="7" y="8" width="1.02" height="1.02" fill="#DAB78A"></rect><rect x="8" y="8" width="1.02" height="1.02" fill="#DAB78A"></rect><rect x="9" y="8" width="1.02" height="1.02" fill="#0F0E0B"></rect><rect x="10" y="8" width="1.02" height="1.02" fill="#B0916A"></rect><rect x="11" y="8" width="1.02" height="1.02" fill="#DAB78A"></rect><rect x="1" y="9" width="1.02" height="1.02" fill="#DAB78A"></rect><rect x="2" y="9" width="1.02" height="1.02" fill="#DAB78A"></rect><rect x="3" y="9" width="1.02" height="1.02" fill="#DAB78A"></rect><rect x="4" y="9" width="1.02" height="1.02" fill="#DAB78A"></rect><rect x="5" y="9" width="1.02" height="1.02" fill="#DAB78A"></rect><rect x="6" y="9" width="1.02" height="1.02" fill="#DAB78A"></rect><rect x="7" y="9" width="1.02" height="1.02" fill="#DAB78A"></rect><rect x="8" y="9" width="1.02" height="1.02" fill="#DAB78A"></rect><rect x="9" y="9" width="1.02" height="1.02" fill="#DAB78A"></rect><rect x="10" y="9" width="1.02" height="1.02" fill="#DAB78A"></rect><rect x="11" y="9" width="1.02" height="1.02" fill="#DAB78A"></rect><rect x="12" y="9" width="1.02" height="1.02" fill="#DAB78A"></rect><rect x="1" y="10" width="1.02" height="1.02" fill="#DAB78A"></rect><rect x="2" y="10" width="1.02" height="1.02" fill="#DAB78A"></rect><rect x="3" y="10" width="1.02" height="1.02" fill="#DAB78A"></rect><rect x="4" y="10" width="1.02" height="1.02" fill="#DAB78A"></rect><rect x="5" y="10" width="1.02" height="1.02" fill="#DAB78A"></rect><rect x="6" y="10" width="1.02" height="1.02" fill="#DAB78A"></rect><rect x="7" y="10" width="1.02" height="1.02" fill="#DAB78A"></rect><rect x="8" y="10" width="1.02" height="1.02" fill="#DAB78A"></rect><rect x="9" y="10" width="1.02" height="1.02" fill="#DAB78A"></rect><rect x="10" y="10" width="1.02" height="1.02" fill="#DAB78A"></rect><rect x="11" y="10" width="1.02" height="1.02" fill="#DAB78A"></rect><rect x="12" y="10" width="1.02" height="1.02" fill="#DAB78A"></rect><rect x="1" y="11" width="1.02" height="1.02" fill="#DAB78A"></rect><rect x="2" y="11" width="1.02" height="1.02" fill="#DAB78A"></rect><rect x="3" y="11" width="1.02" height="1.02" fill="#DAB78A"></rect><rect x="4" y="11" width="1.02" height="1.02" fill="#B0916A"></rect><rect x="5" y="11" width="1.02" height="1.02" fill="#B0916A"></rect><rect x="6" y="11" width="1.02" height="1.02" fill="#B0916A"></rect><rect x="7" y="11" width="1.02" height="1.02" fill="#B0916A"></rect><rect x="8" y="11" width="1.02" height="1.02" fill="#B0916A"></rect><rect x="9" y="11" width="1.02" height="1.02" fill="#B0916A"></rect><rect x="10" y="11" width="1.02" height="1.02" fill="#B0916A"></rect><rect x="11" y="11" width="1.02" height="1.02" fill="#DAB78A"></rect><rect x="12" y="11" width="1.02" height="1.02" fill="#DAB78A"></rect><rect x="2" y="12" width="1.02" height="1.02" fill="#DAB78A"></rect><rect x="3" y="12" width="1.02" height="1.02" fill="#DAB78A"></rect><rect x="4" y="12" width="1.02" height="1.02" fill="#DAB78A"></rect><rect x="5" y="12" width="1.02" height="1.02" fill="#0F0E0B"></rect><rect x="6" y="12" width="1.02" height="1.02" fill="#0F0E0B"></rect><rect x="7" y="12" width="1.02" height="1.02" fill="#0F0E0B"></rect><rect x="8" y="12" width="1.02" height="1.02" fill="#0F0E0B"></rect><rect x="9" y="12" width="1.02" height="1.02" fill="#0F0E0B"></rect><rect x="10" y="12" width="1.02" height="1.02" fill="#DAB78A"></rect><rect x="11" y="12" width="1.02" height="1.02" fill="#DAB78A"></rect><rect x="3" y="13" width="1.02" height="1.02" fill="#DAB78A"></rect><rect x="4" y="13" width="1.02" height="1.02" fill="#DAB78A"></rect><rect x="5" y="13" width="1.02" height="1.02" fill="#DAB78A"></rect><rect x="6" y="13" width="1.02" height="1.02" fill="#DAB78A"></rect><rect x="7" y="13" width="1.02" height="1.02" fill="#DAB78A"></rect><rect x="8" y="13" width="1.02" height="1.02" fill="#DAB78A"></rect><rect x="9" y="13" width="1.02" height="1.02" fill="#DAB78A"></rect><rect x="10" y="13" width="1.02" height="1.02" fill="#DAB78A"></rect><rect x="4" y="14" width="1.02" height="1.02" fill="#2B231C"></rect><rect x="5" y="14" width="1.02" height="1.02" fill="#2B231C"></rect><rect x="6" y="14" width="1.02" height="1.02" fill="#2B231C"></rect><rect x="7" y="14" width="1.02" height="1.02" fill="#2B231C"></rect><rect x="8" y="14" width="1.02" height="1.02" fill="#2B231C"></rect><rect x="9" y="14" width="1.02" height="1.02" fill="#2B231C"></rect><rect x="3" y="15" width="1.02" height="1.02" fill="#2B231C"></rect><rect x="4" y="15" width="1.02" height="1.02" fill="#2B231C"></rect><rect x="5" y="15" width="1.02" height="1.02" fill="#2B231C"></rect><rect x="6" y="15" width="1.02" height="1.02" fill="#2B231C"></rect><rect x="7" y="15" width="1.02" height="1.02" fill="#2B231C"></rect><rect x="8" y="15" width="1.02" height="1.02" fill="#2B231C"></rect><rect x="9" y="15" width="1.02" height="1.02" fill="#2B231C"></rect><rect x="10" y="15" width="1.02" height="1.02" fill="#2B231C"></rect><rect x="2" y="16" width="1.02" height="1.02" fill="#2B231C"></rect><rect x="3" y="16" width="1.02" height="1.02" fill="#2B231C"></rect><rect x="4" y="16" width="1.02" height="1.02" fill="#2B231C"></rect><rect x="5" y="16" width="1.02" height="1.02" fill="#44382B"></rect><rect x="6" y="16" width="1.02" height="1.02" fill="#2B231C"></rect><rect x="7" y="16" width="1.02" height="1.02" fill="#2B231C"></rect><rect x="8" y="16" width="1.02" height="1.02" fill="#2B231C"></rect><rect x="9" y="16" width="1.02" height="1.02" fill="#2B231C"></rect><rect x="10" y="16" width="1.02" height="1.02" fill="#2B231C"></rect><rect x="11" y="16" width="1.02" height="1.02" fill="#2B231C"></rect><rect x="2" y="17" width="1.02" height="1.02" fill="#2B231C"></rect><rect x="3" y="17" width="1.02" height="1.02" fill="#2B231C"></rect><rect x="4" y="17" width="1.02" height="1.02" fill="#2B231C"></rect><rect x="5" y="17" width="1.02" height="1.02" fill="#44382B"></rect><rect x="6" y="17" width="1.02" height="1.02" fill="#2B231C"></rect><rect x="7" y="17" width="1.02" height="1.02" fill="#FF6B35"></rect><rect x="8" y="17" width="1.02" height="1.02" fill="#2B231C"></rect><rect x="9" y="17" width="1.02" height="1.02" fill="#2B231C"></rect><rect x="10" y="17" width="1.02" height="1.02" fill="#2B231C"></rect><rect x="11" y="17" width="1.02" height="1.02" fill="#2B231C"></rect><rect x="3" y="18" width="1.02" height="1.02" fill="#2B231C"></rect><rect x="4" y="18" width="1.02" height="1.02" fill="#2B231C"></rect><rect x="5" y="18" width="1.02" height="1.02" fill="#2B231C"></rect><rect x="6" y="18" width="1.02" height="1.02" fill="#2B231C"></rect><rect x="7" y="18" width="1.02" height="1.02" fill="#2B231C"></rect><rect x="8" y="18" width="1.02" height="1.02" fill="#2B231C"></rect><rect x="9" y="18" width="1.02" height="1.02" fill="#2B231C"></rect><rect x="10" y="18" width="1.02" height="1.02" fill="#2B231C"></rect><rect x="4" y="19" width="1.02" height="1.02" fill="#2B231C"></rect><rect x="5" y="19" width="1.02" height="1.02" fill="#2B231C"></rect><rect x="6" y="19" width="1.02" height="1.02" fill="#2B231C"></rect><rect x="7" y="19" width="1.02" height="1.02" fill="#2B231C"></rect><rect x="8" y="19" width="1.02" height="1.02" fill="#2B231C"></rect><rect x="9" y="19" width="1.02" height="1.02" fill="#2B231C"></rect></svg>